<?xml version="1.0" encoding="UTF-8" standalone="no"?>
<svg width="109px" height="20px" viewBox="0 0 109 20" version="1.1" xmlns="http://www.w3.org/2000/svg" xmlns:xlink="http://www.w3.org/1999/xlink" xmlns:sketch="http://www.bohemiancoding.com/sketch/ns">
    <!-- Generator: Sketch 3.5.1 (25234) - http://www.bohemiancoding.com/sketch -->
    <title>awesome</title>
    <desc>Created with Sketch.</desc>
    <defs>
        <rect id="path-1" x="0" y="0" width="109" height="20" rx="3"></rect>
        <path id="path-3" d="M3,0 L107,0 C108.66,0 110,1.34 110,3 L110,17 C110,18.66 108.66,20 107,20 L3,20 C1.34,20 0,18.66 0,17 L0,3 C0,1.34 1.34,0 3,0 L3,0 Z"></path>
        <linearGradient x1="49.9621622%" y1="0%" x2="49.9621622%" y2="100%" id="linearGradient-5">
            <stop stop-color="#BBBBBB" stop-opacity="0.1" offset="0%"></stop>
            <stop stop-color="#FFFFFF" stop-opacity="0.1" offset="100%"></stop>
        </linearGradient>
    </defs>
    <g id="Page-1" stroke="none" stroke-width="1" fill="none" fill-rule="evenodd" sketch:type="MSPage">
        <g id="GET" sketch:type="MSLayerGroup" transform="translate(-259.000000, 0.000000)">
            <g id="awesome" transform="translate(259.000000, 0.000000)">
                <mask id="mask-2" sketch:name="Mask" fill="white">
                    <use xlink:href="#path-1"></use>
                </mask>
                <use id="Mask" fill="#FFFFFF" sketch:type="MSShapeGroup" xlink:href="#path-1"></use>
                <g id="b" mask="url(#mask-2)" fill="#FFFFFF" sketch:type="MSShapeGroup">
                    <path d="M3,0 L107,0 C108.66,0 110,1.34 110,3 L110,17 C110,18.66 108.66,20 107,20 L3,20 C1.34,20 0,18.66 0,17 L0,3 C0,1.34 1.34,0 3,0 L3,0 Z" id="Shape"></path>
                </g>
                <g id="Clipped" mask="url(#mask-2)">
                    <mask id="mask-4" sketch:name="Shape" fill="white">
                        <use xlink:href="#path-3"></use>
                    </mask>
                    <g id="Shape"></g>
                    <g id="Group" mask="url(#mask-4)" sketch:type="MSShapeGroup">
                        <path d="M0,0 L34,0 L34,20 L0,20 L0,0 L0,0 Z" id="Shape" fill="#CCA6C4"></path>
                        <path d="M34,0 L111,0 L111,20 L34,20 L34,0 L34,0 Z" id="Shape" fill="#494368"></path>
                        <path d="M0,0 L111,0 L111,20 L0,20 L0,0 L0,0 Z" id="Shape" fill="url(#linearGradient-5)"></path>
                    </g>
                </g>
                <path d="M46.97,7.62 C47.39,7.62 47.72,7.75 48.02,8.02 C48.3,8.29 48.45,8.61 48.45,9 L48.45,13.79 L43.21,13.79 C42.79,13.79 42.44,13.66 42.16,13.39 C41.88,13.12 41.73,12.8 41.73,12.41 L41.73,10.14 L47.23,10.14 L47.23,8.99 C47.23,8.92 47.2,8.87 47.15,8.83 C47.1,8.79 47.04,8.76 46.98,8.76 L41.74,8.76 L41.74,7.62 L46.97,7.62 L46.97,7.62 Z M47.23,12.64 L47.23,11.28 L42.97,11.28 L42.97,12.41 C42.97,12.48 43,12.53 43.05,12.57 C43.1,12.61 43.16,12.64 43.22,12.64 L47.23,12.64 L47.23,12.64 Z M59.09,7.62 L60.39,7.62 L57.9,13.79 L56.9,13.79 L54.68,9.2 L52.58,13.79 L52.55,13.78 L52.56,13.79 L51.56,13.79 L48.96,7.62 L50.26,7.62 L52.05,11.71 L53.96,7.62 L55.36,7.62 L57.38,11.71 L59.09,7.62 L59.09,7.62 Z M66.04,7.62 C66.46,7.62 66.81,7.75 67.09,8.02 C67.37,8.29 67.52,8.61 67.52,9 L67.52,11.27 L62.02,11.27 L62.02,12.4 C62.02,12.47 62.05,12.52 62.1,12.56 C62.15,12.6 62.21,12.63 62.27,12.63 L67.51,12.63 L67.51,13.77 L62.27,13.77 C61.85,13.77 61.5,13.64 61.22,13.37 C60.94,13.1 60.79,12.78 60.79,12.39 L60.79,8.99 C60.79,8.61 60.94,8.28 61.22,8.01 C61.5,7.74 61.85,7.61 62.27,7.61 L66.04,7.61 L66.04,7.62 L66.04,7.62 Z M62.03,10.12 L66.29,10.12 L66.29,8.99 C66.29,8.92 66.26,8.87 66.21,8.83 C66.16,8.79 66.1,8.76 66.04,8.76 L62.27,8.76 C62.2,8.76 62.15,8.79 62.1,8.83 C62.05,8.87 62.02,8.94 62.02,8.99 L62.02,10.12 L62.03,10.12 L62.03,10.12 Z M75.38,8.99 L75.38,9.22 L74.16,9.22 L74.16,8.99 C74.16,8.92 74.13,8.87 74.08,8.83 C74.03,8.79 73.97,8.76 73.91,8.76 L70.14,8.76 C70.07,8.76 70.02,8.79 69.97,8.83 C69.92,8.87 69.89,8.94 69.89,8.99 L69.89,9.89 C69.89,9.96 69.92,10.01 69.97,10.05 C70.02,10.09 70.08,10.12 70.14,10.12 L73.91,10.12 C74.33,10.12 74.66,10.25 74.96,10.52 C75.24,10.79 75.39,11.11 75.39,11.5 L75.39,12.39 C75.39,12.77 75.24,13.1 74.96,13.37 C74.68,13.64 74.33,13.77 73.91,13.77 L70.14,13.77 C69.72,13.77 69.37,13.64 69.09,13.37 C68.81,13.1 68.66,12.78 68.66,12.39 L68.66,12.16 L69.9,12.16 L69.9,12.39 C69.9,12.46 69.93,12.51 69.98,12.55 C70.03,12.59 70.09,12.62 70.15,12.62 L73.92,12.62 C73.99,12.62 74.04,12.59 74.09,12.55 C74.14,12.51 74.17,12.44 74.17,12.39 L74.17,11.5 C74.17,11.43 74.14,11.38 74.09,11.34 C74.04,11.3 73.98,11.27 73.92,11.27 L70.15,11.27 C69.73,11.27 69.38,11.14 69.1,10.87 C68.82,10.6 68.67,10.28 68.67,9.89 L68.67,8.99 C68.67,8.61 68.82,8.28 69.1,8.01 C69.38,7.74 69.73,7.61 70.15,7.61 L73.92,7.61 C74.34,7.61 74.67,7.74 74.97,8.01 C75.24,8.29 75.38,8.62 75.38,8.99 L75.38,8.99 Z M77.98,7.62 L81.75,7.62 C82.17,7.62 82.52,7.75 82.8,8.02 C83.08,8.29 83.23,8.61 83.23,9 L83.23,12.4 C83.23,12.78 83.08,13.11 82.8,13.38 C82.52,13.65 82.17,13.78 81.75,13.78 L77.98,13.78 C77.56,13.78 77.21,13.65 76.93,13.38 C76.65,13.11 76.5,12.79 76.5,12.4 L76.5,8.99 C76.5,8.61 76.65,8.28 76.93,8.01 C77.23,7.75 77.58,7.62 77.98,7.62 L77.98,7.62 Z M81.75,8.76 L77.98,8.76 C77.91,8.76 77.86,8.79 77.81,8.83 C77.76,8.87 77.73,8.94 77.73,8.99 L77.73,12.39 C77.73,12.46 77.76,12.51 77.81,12.55 C77.86,12.59 77.92,12.62 77.98,12.62 L81.75,12.62 C81.82,12.62 81.87,12.59 81.92,12.55 C81.97,12.51 82,12.44 82,12.39 L82,8.99 C82,8.92 81.97,8.87 81.92,8.83 C81.88,8.79 81.82,8.76 81.75,8.76 L81.75,8.76 Z M92.87,7.62 C93.29,7.62 93.62,7.75 93.92,8.02 C94.2,8.29 94.35,8.61 94.35,9 L94.35,13.79 L93.13,13.79 L93.13,8.99 C93.13,8.92 93.1,8.87 93.05,8.83 C93,8.79 92.94,8.76 92.86,8.76 L90.25,8.76 C90.18,8.76 90.13,8.79 90.08,8.83 C90.03,8.87 90,8.94 90,8.99 L90,13.78 L88.76,13.78 L88.76,8.99 C88.76,8.92 88.73,8.87 88.68,8.83 C88.63,8.79 88.57,8.76 88.51,8.76 L85.89,8.76 C85.82,8.76 85.77,8.79 85.72,8.83 C85.67,8.87 85.64,8.94 85.64,8.99 L85.64,13.78 L84.4,13.78 L84.4,7.62 L92.87,7.62 L92.87,7.62 Z M100.79,7.62 C101.21,7.62 101.56,7.75 101.84,8.02 C102.12,8.29 102.27,8.61 102.27,9 L102.27,11.27 L96.77,11.27 L96.77,12.4 C96.77,12.47 96.8,12.52 96.85,12.56 C96.9,12.6 96.96,12.63 97.02,12.63 L102.26,12.63 L102.26,13.77 L97.02,13.77 C96.6,13.77 96.25,13.64 95.97,13.37 C95.69,13.1 95.54,12.78 95.54,12.39 L95.54,8.99 C95.54,8.61 95.69,8.28 95.97,8.01 C96.25,7.74 96.6,7.61 97.02,7.61 L100.79,7.61 L100.79,7.62 L100.79,7.62 Z M96.77,10.12 L101.03,10.12 L101.03,8.99 C101.03,8.92 101,8.87 100.95,8.83 C100.9,8.79 100.84,8.76 100.78,8.76 L97.01,8.76 C96.94,8.76 96.89,8.79 96.84,8.83 C96.79,8.87 96.76,8.94 96.76,8.99 L96.76,10.12 L96.77,10.12 L96.77,10.12 Z" id="Shape" fill="#000000" sketch:type="MSShapeGroup" mask="url(#mask-2)"></path>
                <path d="M46.97,6.92 C47.39,6.92 47.72,7.05 48.02,7.32 C48.3,7.59 48.45,7.91 48.45,8.3 L48.45,13.09 L43.21,13.09 C42.79,13.09 42.44,12.96 42.16,12.69 C41.88,12.42 41.73,12.1 41.73,11.71 L41.73,9.44 L47.23,9.44 L47.23,8.29 C47.23,8.22 47.2,8.17 47.15,8.13 C47.1,8.09 47.04,8.06 46.98,8.06 L41.74,8.06 L41.74,6.92 L46.97,6.92 L46.97,6.92 Z M47.23,11.94 L47.23,10.58 L42.97,10.58 L42.97,11.71 C42.97,11.78 43,11.83 43.05,11.87 C43.1,11.91 43.16,11.94 43.22,11.94 L47.23,11.94 L47.23,11.94 Z M59.09,6.92 L60.39,6.92 L57.9,13.09 L56.9,13.09 L54.68,8.5 L52.58,13.09 L52.55,13.08 L52.56,13.09 L51.56,13.09 L48.96,6.92 L50.26,6.92 L52.05,11.01 L53.96,6.92 L55.36,6.92 L57.38,11.01 L59.09,6.92 L59.09,6.92 Z M66.04,6.92 C66.46,6.92 66.81,7.05 67.09,7.32 C67.37,7.59 67.52,7.91 67.52,8.3 L67.52,10.57 L62.02,10.57 L62.02,11.7 C62.02,11.77 62.05,11.82 62.1,11.86 C62.15,11.9 62.21,11.93 62.27,11.93 L67.51,11.93 L67.51,13.07 L62.27,13.07 C61.85,13.07 61.5,12.94 61.22,12.67 C60.94,12.4 60.79,12.08 60.79,11.69 L60.79,8.29 C60.79,7.91 60.94,7.58 61.22,7.31 C61.5,7.04 61.85,6.91 62.27,6.91 L66.04,6.91 L66.04,6.92 L66.04,6.92 Z M62.03,9.42 L66.29,9.42 L66.29,8.29 C66.29,8.22 66.26,8.17 66.21,8.13 C66.16,8.09 66.1,8.06 66.04,8.06 L62.27,8.06 C62.2,8.06 62.15,8.09 62.1,8.13 C62.05,8.17 62.02,8.24 62.02,8.29 L62.02,9.42 L62.03,9.42 L62.03,9.42 Z M75.38,8.29 L75.38,8.52 L74.16,8.52 L74.16,8.29 C74.16,8.22 74.13,8.17 74.08,8.13 C74.03,8.09 73.97,8.06 73.91,8.06 L70.14,8.06 C70.07,8.06 70.02,8.09 69.97,8.13 C69.92,8.17 69.89,8.24 69.89,8.29 L69.89,9.19 C69.89,9.26 69.92,9.31 69.97,9.35 C70.02,9.39 70.08,9.42 70.14,9.42 L73.91,9.42 C74.33,9.42 74.66,9.55 74.96,9.82 C75.24,10.09 75.39,10.41 75.39,10.8 L75.39,11.69 C75.39,12.07 75.24,12.4 74.96,12.67 C74.68,12.94 74.33,13.07 73.91,13.07 L70.14,13.07 C69.72,13.07 69.37,12.94 69.09,12.67 C68.81,12.4 68.66,12.08 68.66,11.69 L68.66,11.46 L69.9,11.46 L69.9,11.69 C69.9,11.76 69.93,11.81 69.98,11.85 C70.03,11.89 70.09,11.92 70.15,11.92 L73.92,11.92 C73.99,11.92 74.04,11.89 74.09,11.85 C74.14,11.81 74.17,11.74 74.17,11.69 L74.17,10.8 C74.17,10.73 74.14,10.68 74.09,10.64 C74.04,10.6 73.98,10.57 73.92,10.57 L70.15,10.57 C69.73,10.57 69.38,10.44 69.1,10.17 C68.82,9.9 68.67,9.58 68.67,9.19 L68.67,8.29 C68.67,7.91 68.82,7.58 69.1,7.31 C69.38,7.04 69.73,6.91 70.15,6.91 L73.92,6.91 C74.34,6.91 74.67,7.04 74.97,7.31 C75.24,7.59 75.38,7.92 75.38,8.29 L75.38,8.29 Z M77.98,6.92 L81.75,6.92 C82.17,6.92 82.52,7.05 82.8,7.32 C83.08,7.59 83.23,7.91 83.23,8.3 L83.23,11.7 C83.23,12.08 83.08,12.41 82.8,12.68 C82.52,12.95 82.17,13.08 81.75,13.08 L77.98,13.08 C77.56,13.08 77.21,12.95 76.93,12.68 C76.65,12.41 76.5,12.09 76.5,11.7 L76.5,8.29 C76.5,7.91 76.65,7.58 76.93,7.31 C77.23,7.05 77.58,6.92 77.98,6.92 L77.98,6.92 Z M81.75,8.06 L77.98,8.06 C77.91,8.06 77.86,8.09 77.81,8.13 C77.76,8.17 77.73,8.24 77.73,8.29 L77.73,11.69 C77.73,11.76 77.76,11.81 77.81,11.85 C77.86,11.89 77.92,11.92 77.98,11.92 L81.75,11.92 C81.82,11.92 81.87,11.89 81.92,11.85 C81.97,11.81 82,11.74 82,11.69 L82,8.29 C82,8.22 81.97,8.17 81.92,8.13 C81.88,8.09 81.82,8.06 81.75,8.06 L81.75,8.06 Z M92.87,6.92 C93.29,6.92 93.62,7.05 93.92,7.32 C94.2,7.59 94.35,7.91 94.35,8.3 L94.35,13.09 L93.13,13.09 L93.13,8.29 C93.13,8.22 93.1,8.17 93.05,8.13 C93,8.09 92.94,8.06 92.86,8.06 L90.25,8.06 C90.18,8.06 90.13,8.09 90.08,8.13 C90.03,8.17 90,8.24 90,8.29 L90,13.08 L88.76,13.08 L88.76,8.29 C88.76,8.22 88.73,8.17 88.68,8.13 C88.63,8.09 88.57,8.06 88.51,8.06 L85.89,8.06 C85.82,8.06 85.77,8.09 85.72,8.13 C85.67,8.17 85.64,8.24 85.64,8.29 L85.64,13.08 L84.4,13.08 L84.4,6.92 L92.87,6.92 L92.87,6.92 Z M100.79,6.92 C101.21,6.92 101.56,7.05 101.84,7.32 C102.12,7.59 102.27,7.91 102.27,8.3 L102.27,10.57 L96.77,10.57 L96.77,11.7 C96.77,11.77 96.8,11.82 96.85,11.86 C96.9,11.9 96.96,11.93 97.02,11.93 L102.26,11.93 L102.26,13.07 L97.02,13.07 C96.6,13.07 96.25,12.94 95.97,12.67 C95.69,12.4 95.54,12.08 95.54,11.69 L95.54,8.29 C95.54,7.91 95.69,7.58 95.97,7.31 C96.25,7.04 96.6,6.91 97.02,6.91 L100.79,6.91 L100.79,6.92 L100.79,6.92 Z M96.77,9.42 L101.03,9.42 L101.03,8.29 C101.03,8.22 101,8.17 100.95,8.13 C100.9,8.09 100.84,8.06 100.78,8.06 L97.01,8.06 C96.94,8.06 96.89,8.09 96.84,8.13 C96.79,8.17 96.76,8.24 96.76,8.29 L96.76,9.42 L96.77,9.42 L96.77,9.42 Z" id="Shape" fill="#FFFFFF" sketch:type="MSShapeGroup" mask="url(#mask-2)"></path>
                <path d="M26.57,9.76 L21.66,5.26 L20.97,6.01 L25.06,9.76 L8.94,9.76 L13.03,6.01 L12.34,5.26 L7.43,9.76 L7.43,12.73 C7.43,14.07 8.72,15.16 10.31,15.16 L13.34,15.16 C14.93,15.16 16.22,14.07 16.22,12.73 L16.22,10.78 L17.79,10.78 L17.79,12.73 C17.79,14.07 19.08,15.16 20.67,15.16 L23.7,15.16 C25.29,15.16 26.58,14.07 26.58,12.73 L26.57,9.76 L26.57,9.76 Z" id="Shape" fill="#DDA4CA" sketch:type="MSShapeGroup" mask="url(#mask-2)"></path>
                <path d="M26.57,9.34 L21.66,4.84 L20.97,5.59 L25.06,9.34 L8.94,9.34 L13.03,5.59 L12.34,4.84 L7.43,9.34 L7.43,12.31 C7.43,13.65 8.72,14.74 10.31,14.74 L13.34,14.74 C14.93,14.74 16.22,13.65 16.22,12.31 L16.22,10.36 L17.79,10.36 L17.79,12.31 C17.79,13.65 19.08,14.74 20.67,14.74 L23.7,14.74 C25.29,14.74 26.58,13.65 26.58,12.31 L26.57,9.34 L26.57,9.34 Z" id="Shape" fill="#261120" sketch:type="MSShapeGroup" mask="url(#mask-2)"></path>
            </g>
        </g>
    </g>
</svg>