<?xml version="1.0" encoding="UTF-8" standalone="no"?>
<svg width="12px" height="12px" viewBox="0 0 23 23" version="1.1" xmlns="http://www.w3.org/2000/svg" xmlns:xlink="http://www.w3.org/1999/xlink" xmlns:sketch="http://www.bohemiancoding.com/sketch/ns">
    <!-- Generator: Sketch 3.5.1 (25234) - http://www.bohemiancoding.com/sketch -->
    <title>min-free</title>
    <desc>Created with Sketch.</desc>
    <defs></defs>
    <g id="Page-1" stroke="none" stroke-width="1" fill="none" fill-rule="evenodd" sketch:type="MSPage">
        <g id="min-new" sketch:type="MSLayerGroup" fill="#FF6600">
            <g id="min-free" sketch:type="MSShapeGroup">
                <path d="M11.9579876,16.4018188 C12.7770166,16.2796451 13.3909749,15.9004857 13.9078233,15.4361755 C14.5443805,14.8691008 14.8633235,14.149352 14.8633235,13.2756458 C14.8633235,12.5507651 14.6586682,11.9695776 14.2506872,11.5333661 C14.1382551,11.4150807 13.9983645,11.3015122 13.8310684,11.1927118 L19.2601817,8.84128984 L18.5581351,7.36023026 L11.6453294,10.3542593 C10.7724963,10.1147744 10.3207674,9.93251282 10.1389802,9.80648176 C9.93964095,9.67690138 9.84130003,9.51268059 9.84130003,9.31381941 C9.84130003,9.09314773 9.9489432,8.91481447 10.1655587,8.77881897 C10.3821743,8.63640867 10.6479601,8.5658453 11.1582689,8.5658453 C11.9702447,8.5658453 12.4619484,8.61459818 13.1250841,9.15088184 L14.2998575,7.91794274 C13.7725741,7.31284589 12.8296975,7.01405834 11.9579876,6.90207959 L11.9579876,4.92857143 L10.8523185,4.92857143 L10.8523185,6.85347867 C9.90878586,6.89297725 9.17773887,7.14377708 8.66121091,7.60489687 C8.0964161,8.10910625 7.84657741,8.81217648 7.84657741,9.65124188 C7.84657741,10.4903076 7.93960228,10.8046364 8.51635772,11.2870349 C8.61294688,11.3671918 8.74066022,11.4536921 8.89776926,11.5442645 L3.64306641,13.8201469 L4.34511287,15.3012065 L11.0387918,12.4020842 C11.2995193,12.4799768 11.5766582,12.5560459 11.8692461,12.6290265 C12.2054651,12.713703 12.4951715,13.0010894 12.6094596,13.1139912 C12.7184316,13.2281758 12.7715888,13.3834157 12.7715888,13.5822769 C12.7715888,13.8709462 12.7051425,14.298177 12.4353698,14.4457189 C11.700472,14.8460071 9.56089588,14.7780095 8.85922128,13.8311742 L7.49308208,15.0461512 C7.96028967,15.8442525 9.50670153,16.3206242 10.8523185,16.4226072 L10.8523185,17.4914614 L11.9579876,17.4914614 L11.9579876,16.4018188 Z M11.5,22.3191231 C17.4752367,22.3191231 22.3191231,17.4752367 22.3191231,11.5 C22.3191231,5.52476331 17.4752367,0.680876904 11.5,0.680876904 C5.52476331,0.680876904 0.680876904,5.52476331 0.680876904,11.5 C0.680876904,17.4752367 5.52476331,22.3191231 11.5,22.3191231 Z" id="Oval-14"></path>
            </g>
        </g>
    </g>
</svg>