<?xml version="1.0" encoding="UTF-8" standalone="no"?>
<svg width="12px" height="12px" viewBox="0 0 22 22" version="1.1" xmlns="http://www.w3.org/2000/svg" xmlns:xlink="http://www.w3.org/1999/xlink" xmlns:sketch="http://www.bohemiancoding.com/sketch/ns">
    <!-- Generator: Sketch 3.5.1 (25234) - http://www.bohemiancoding.com/sketch -->
    <title>min-hot</title>
    <desc>Created with Sketch.</desc>
    <defs></defs>
    <g id="Page-1" stroke="none" stroke-width="1" fill="none" fill-rule="evenodd" sketch:type="MSPage">
        <g id="min-new" sketch:type="MSLayerGroup" transform="translate(-110.000000, -1.000000)" fill="#D0021B">
            <g id="min-hot" transform="translate(110.000000, 1.000000)" sketch:type="MSShapeGroup">
                <path d="M10.8191231,21.6382462 C16.7943598,21.6382462 21.6382462,16.7943598 21.6382462,10.8191231 C21.6382462,4.8438864 16.7943598,0 10.8191231,0 C4.8438864,0 0,4.8438864 0,10.8191231 C0,16.7943598 4.8438864,21.6382462 10.8191231,21.6382462 Z M15.0268223,11.3639413 C14.6417422,11.156564 13.7968203,10.7649545 14.6121193,9.22355159 C15.086068,8.32745981 15.3231197,7.39428792 13.8122503,6.41666454 C13.8122503,6.41666454 13.4864159,6.17966442 13.6049074,7.21653354 C13.7072472,8.11252221 12.3013809,8.63849995 11.8866779,7.54238509 C11.7958677,7.30251545 12.0362013,6.73978405 12.0644151,6.35741882 C12.271758,3.54312602 8.84524787,3 8.84524787,3 C8.84524787,3 10.9781803,6.39693885 7.81825877,8.52988847 C7.81825877,8.52988847 7.29490998,8.87550006 7.05785829,8.24352262 C6.82089252,7.61154519 6.33701224,7.50291654 6.11980652,7.50291654 C5.90251488,7.50291654 6.88012108,8.58913421 6.35677229,9.87286629 C5.8334235,11.1565984 4.27323994,11.4528271 5.3989433,14.2967771 C5.3989433,14.2967771 6.90972676,18.0294475 11.5311176,17.9998246 C16.1525084,17.9702017 16.3892165,14.0605673 16.3895773,13.4969081 C16.3902131,12.4600561 15.4120055,11.5713185 15.0268223,11.3639413 Z M9.8426313,16.9333154 C8.21327044,16.3704638 7.23568143,13.2302679 8.98343066,11.9801622 C10.4330267,10.943379 10.3747604,9.67430373 10.3126796,9.27130214 C10.3064766,9.23112913 10.3556018,9.2074171 10.3841593,9.23635265 C10.7366096,9.59333915 11.8794269,10.8969687 10.9683347,11.9801622 C9.90187704,13.2481035 10.9090889,13.9116282 11.7385808,13.9412511 C12.4053359,13.9650662 12.4786714,12.9169081 12.4817814,12.5047825 C12.4821423,12.4601936 12.5418176,12.448286 12.5623165,12.4879092 C13.16486,13.6526859 12.1720988,14.4460255 12.6272325,14.4744971 C12.9369324,14.4938619 13.0822803,14.3235132 13.1457873,14.2030973 C13.1637947,14.1689382 13.2154114,14.1747116 13.2256007,14.2119807 C13.9425462,16.8352026 11.4472491,17.4876617 9.8426313,16.9333154 Z" id="Oval-14"></path>
            </g>
        </g>
    </g>
</svg>