<?xml version="1.0" encoding="UTF-8" standalone="no"?>
<svg width="12px" height="12px" viewBox="0 0 22 22" version="1.1" xmlns="http://www.w3.org/2000/svg" xmlns:xlink="http://www.w3.org/1999/xlink" xmlns:sketch="http://www.bohemiancoding.com/sketch/ns">
    <!-- Generator: Sketch 3.5.1 (25234) - http://www.bohemiancoding.com/sketch -->
    <title>min-bibei</title>
    <desc>Created with Sketch.</desc>
    <defs></defs>
    <g id="Page-1" stroke="none" stroke-width="1" fill="none" fill-rule="evenodd" sketch:type="MSPage">
        <g id="min-new" sketch:type="MSLayerGroup" transform="translate(-82.000000, -1.000000)" fill="#609DE5">
            <g id="min-bibei" transform="translate(82.000000, 1.000000)" sketch:type="MSShapeGroup">
                <path d="M10.8191231,21.6382462 C16.7943598,21.6382462 21.6382462,16.7943598 21.6382462,10.8191231 C21.6382462,4.8438864 16.7943598,0 10.8191231,0 C4.8438864,0 0,4.8438864 0,10.8191231 C0,16.7943598 4.8438864,21.6382462 10.8191231,21.6382462 Z M9.35284472,3.91718427 L8.29982609,4.92632712 C9.52834783,5.90621946 10.4643644,6.81298551 11.1371263,7.64662526 L12.1901449,6.59360663 C11.4296315,5.7160911 10.4789897,4.82395031 9.35284472,3.91718427 Z M13.6380456,4.39981781 C12.6727785,7.85137888 11.2395031,10.6448033 9.35284472,12.7654658 L9.35284472,6.97386336 L7.81719255,6.97386336 L7.81719255,14.2572422 C6.88117598,15.0177557 5.84278261,15.6612671 4.73126294,16.1731511 L5.60877847,17.4601739 C6.42779296,17.0799172 7.2321822,16.6265342 7.99269565,16.1000248 C8.21207454,16.6411594 8.72395859,16.9190393 9.52834783,16.9190393 L12.5557764,16.9190393 C13.2577888,16.9190393 13.7696729,16.728911 14.1206791,16.3632795 C14.4716853,15.9830228 14.7203147,14.7691263 14.8665673,12.7508406 L13.4186667,12.268207 C13.3601656,13.8184845 13.2285383,14.7398758 13.0237847,15.032381 C12.8629068,15.3102609 12.6142774,15.4565135 12.2778965,15.4565135 L9.99635611,15.4565135 C9.61609938,15.4565135 9.41134576,15.2956356 9.36746998,14.9885052 C11.853764,12.7069648 13.7404224,9.38703106 15.0420704,5.01407868 L13.6380456,4.39981781 Z M5.60877847,8.26088613 C5.28702277,10.2499213 4.76051346,12.1219545 4,13.8916108 L5.33089855,14.7106253 C6.09141201,12.9848447 6.67642236,10.9373085 7.08592961,8.55339131 L5.60877847,8.26088613 Z M15.5539545,8.48026501 L14.1060538,8.96289855 C14.9104431,10.6155528 15.641706,12.5168364 16.2998427,14.6521242 L17.674617,14.0378634 C17.0749814,12.0780787 16.3729689,10.2206708 15.5539545,8.48026501 Z" id="Oval-14"></path>
            </g>
        </g>
    </g>
</svg>