<?xml version="1.0" encoding="UTF-8" standalone="no"?>
<svg width="12px" height="12px" viewBox="0 0 23 23" version="1.1" xmlns="http://www.w3.org/2000/svg" xmlns:xlink="http://www.w3.org/1999/xlink" xmlns:sketch="http://www.bohemiancoding.com/sketch/ns">
    <!-- Generator: Sketch 3.5.1 (25234) - http://www.bohemiancoding.com/sketch -->
    <title>min-tuijian</title>
    <desc>Created with Sketch.</desc>
    <defs></defs>
    <g id="Page-1" stroke="none" stroke-width="1" fill="none" fill-rule="evenodd" sketch:type="MSPage">
        <g id="min-new" sketch:type="MSLayerGroup" transform="translate(-54.000000, 0.000000)">
            <g id="min-tuijian" transform="translate(54.000000, 0.000000)" sketch:type="MSShapeGroup">
                <circle id="Oval-14" fill="#9012FE" cx="11.5" cy="11.5" r="10.8191231"></circle>
                <path d="M5.30625,5.875 L5.30625,7.26041667 L8.47083333,7.26041667 L8.47083333,8.15 L9.95833333,8.15 C9.84166667,8.4125 9.725,8.675 9.59375,8.95208333 L5.55416667,8.95208333 L5.55416667,10.3375 L8.7625,10.3375 C7.82916667,11.6208333 6.575,12.7729167 5,13.79375 L5.94791667,15.0479167 C6.50208333,14.66875 7.04166667,14.2604167 7.55208333,13.8375 L7.55208333,18.51875 L9.025,18.51875 L9.025,12.4083333 C9.60833333,11.7666667 10.1041667,11.0666667 10.5416667,10.3375 L18.0375,10.3375 L18.0375,8.95208333 L11.2270833,8.95208333 C11.3145833,8.73333333 11.4020833,8.5 11.4895833,8.26666667 L10.0166667,7.98958333 L10.0166667,7.26041667 L13.4,7.26041667 L13.4,8.16458333 L14.9458333,8.16458333 L14.9458333,7.26041667 L18.1104167,7.26041667 L18.1104167,5.875 L14.9458333,5.875 L14.9458333,5 L13.4,5 L13.4,5.875 L10.0166667,5.875 L10.0166667,5 L8.47083333,5 L8.47083333,5.875 L5.30625,5.875 Z M13.575,13.3416667 L13.575,13.9541667 L9.76875,13.9541667 L9.76875,15.3833333 L13.575,15.3833333 L13.575,16.7104167 C13.575,16.9729167 13.4291667,17.11875 13.1666667,17.11875 C12.7583333,17.11875 12.21875,17.075 11.5333333,17.0166667 L11.9708333,18.4895833 L13.7645833,18.4895833 C14.6541667,18.4895833 15.10625,18.0375 15.10625,17.1333333 L15.10625,15.3833333 L18.0958333,15.3833333 L18.0958333,13.9541667 L15.10625,13.9541667 L15.10625,13.7208333 C15.89375,13.1375 16.5791667,12.6270833 17.1770833,12.175 L17.1770833,11.0958333 L10.775,11.0958333 L10.775,12.4666667 L14.975,12.4666667 C14.3625,12.83125 13.8958333,13.1229167 13.575,13.3416667 L13.575,13.3416667 Z" id="è" fill="#FFFFFF"></path>
            </g>
        </g>
    </g>
</svg>