<?xml version="1.0" encoding="utf-8"?>
<!-- Generator: Adobe Illustrator 18.1.0, SVG Export Plug-In . SVG Version: 6.00 Build 0)  -->
<!DOCTYPE svg PUBLIC "-//W3C//DTD SVG 1.1//EN" "http://www.w3.org/Graphics/SVG/1.1/DTD/svg11.dtd">
<svg version="1.1" id="Layer_1" xmlns="http://www.w3.org/2000/svg" xmlns:xlink="http://www.w3.org/1999/xlink" x="0px" y="0px"
	 width="319px" height="377px" viewBox="35 -63 319 377" enable-background="new 35 -63 319 377" xml:space="preserve">
<rect x="35" y="-39" fill="#89479B" width="319" height="45"/>
<rect x="35" y="-27.5" fill="#E88024" width="52.9" height="22"/>
<rect x="98.1" y="-27.5" fill="#E88024" width="26.9" height="22"/>
<rect x="135.8" y="-27.5" fill="#E88024" width="96.2" height="22"/>
<rect x="35" y="35" fill="#89479B" width="319" height="45"/>
<rect x="157" y="46.5" fill="#E88024" width="52.9" height="22"/>
<rect x="220.1" y="46.5" fill="#E88024" width="26.9" height="22"/>
<rect x="257.8" y="46.5" fill="#E88024" width="96.2" height="22"/>
<text transform="matrix(1 0 0 1 43 -39)" fill="#89479B" font-family="'GothamRounded-Book'" font-size="16">flex-start</text>
<text transform="matrix(1 0 0 1 43 35)" fill="#89479B" font-family="'GothamRounded-Book'" font-size="16">flex-end</text>
<rect x="35" y="110" fill="#89479B" width="319" height="45"/>
<rect x="94.4" y="121.5" fill="#E88024" width="52.9" height="22"/>
<rect x="157.5" y="121.5" fill="#E88024" width="26.9" height="22"/>
<rect x="195.2" y="121.5" fill="#E88024" width="96.2" height="22"/>
<text transform="matrix(1 0 0 1 43 110)" fill="#89479B" font-family="'GothamRounded-Book'" font-size="16">center</text>
<rect x="35.7" y="185" fill="#89479B" width="319" height="45"/>
<rect x="35" y="196.5" fill="#E88024" width="52.9" height="22"/>
<rect x="162.2" y="196.5" fill="#E88024" width="26.9" height="22"/>
<rect x="257.8" y="196.5" fill="#E88024" width="96.2" height="22"/>
<text transform="matrix(1 0 0 1 43.6836 185)" fill="#89479B" font-family="'GothamRounded-Book'" font-size="16">space-between</text>
<rect x="36" y="261" fill="#89479B" width="319" height="45"/>
<rect x="58" y="272.5" fill="#E88024" width="52.9" height="22"/>
<rect x="158.5" y="272.5" fill="#E88024" width="26.9" height="22"/>
<rect x="236.1" y="272.5" fill="#E88024" width="96.2" height="22"/>
<text transform="matrix(1 0 0 1 44.0254 261)" fill="#89479B" font-family="'GothamRounded-Book'" font-size="16">space-around</text>
</svg>
