<?xml version="1.0" encoding="utf-8"?>
<!-- Generator: Adobe Illustrator 18.1.0, SVG Export Plug-In . SVG Version: 6.00 Build 0)  -->
<!DOCTYPE svg PUBLIC "-//W3C//DTD SVG 1.1//EN" "http://www.w3.org/Graphics/SVG/1.1/DTD/svg11.dtd">
<svg version="1.1" id="Layer_1" xmlns="http://www.w3.org/2000/svg" xmlns:xlink="http://www.w3.org/1999/xlink" x="0px" y="0px"
	 width="319px" height="377px" viewBox="35 -63 319 377" enable-background="new 35 -63 319 377" xml:space="preserve">
<rect x="35" y="-39" fill="#89479B" width="148.9" height="98"/>
<text transform="matrix(1 0 0 1 43 -39)" fill="#89479B" font-family="'GothamRounded-Book'" font-size="16">flex-start</text>
<rect x="35" y="90" fill="#89479B" width="148.9" height="98"/>
<text transform="matrix(1 0 0 1 43 90)" fill="#89479B" font-family="'GothamRounded-Book'" font-size="16">center</text>
<rect x="35" y="216" fill="#89479B" width="148.9" height="98"/>
<text transform="matrix(1 0 0 1 43 216)" fill="#89479B" font-family="'GothamRounded-Book'" font-size="16">space-between</text>
<rect x="194.5" y="90" fill="#89479B" width="148.9" height="98"/>
<text transform="matrix(1 0 0 1 202.5 90)" fill="#89479B" font-family="'GothamRounded-Book'" font-size="16">stretch</text>
<rect x="194.5" y="216" fill="#89479B" width="148.9" height="98"/>
<text transform="matrix(1 0 0 1 202.5 216)" fill="#89479B" font-family="'GothamRounded-Book'" font-size="16">space-around</text>
<rect x="194.5" y="-39" fill="#89479B" width="148.9" height="98"/>
<text transform="matrix(1 0 0 1 202.5 -39)" fill="#89479B" font-family="'GothamRounded-Book'" font-size="16">flex-end</text>
<rect x="38.5" y="-35.5" fill="#E38712" width="15.5" height="19.5"/>
<rect x="58" y="-35.5" fill="#E38712" width="30" height="19.5"/>
<rect x="91.5" y="-35.5" fill="#E38712" width="8.5" height="19.5"/>
<rect x="38.8" y="-12" fill="#E38712" width="26.8" height="19.5"/>
<rect x="69" y="-12" fill="#E38712" width="26.8" height="19.5"/>
<rect x="38.8" y="11" fill="#E38712" width="19.2" height="19.5"/>
<rect x="61.4" y="11" fill="#E38712" width="26.6" height="19.5"/>
<rect x="99" y="-12" fill="#E38712" width="15.3" height="19.5"/>
<rect x="117.8" y="-12" fill="#E38712" width="63.2" height="19.5"/>
<rect x="103.2" y="-35.5" fill="#E38712" width="22.3" height="19.5"/>
<rect x="128.7" y="-35.5" fill="#E38712" width="52.3" height="19.5"/>
<rect x="198.7" y="-11.2" fill="#E38712" width="15.5" height="19.5"/>
<rect x="218.2" y="-11.2" fill="#E38712" width="30" height="19.5"/>
<rect x="251.7" y="-11.2" fill="#E38712" width="8.5" height="19.5"/>
<rect x="198.9" y="12.2" fill="#E38712" width="26.8" height="19.5"/>
<rect x="229.2" y="12.2" fill="#E38712" width="26.8" height="19.5"/>
<rect x="198.9" y="35.2" fill="#E38712" width="19.2" height="19.5"/>
<rect x="221.6" y="35.2" fill="#E38712" width="26.6" height="19.5"/>
<rect x="259.2" y="12.2" fill="#E38712" width="15.3" height="19.5"/>
<rect x="278" y="12.2" fill="#E38712" width="63.2" height="19.5"/>
<rect x="263.4" y="-11.2" fill="#E38712" width="22.3" height="19.5"/>
<rect x="288.9" y="-11.2" fill="#E38712" width="52.3" height="19.5"/>
<rect x="38.2" y="106" fill="#E38712" width="15.5" height="19.5"/>
<rect x="57.7" y="106" fill="#E38712" width="30" height="19.5"/>
<rect x="91.2" y="106" fill="#E38712" width="8.5" height="19.5"/>
<rect x="38.4" y="129.5" fill="#E38712" width="26.8" height="19.5"/>
<rect x="68.7" y="129.5" fill="#E38712" width="26.8" height="19.5"/>
<rect x="38.4" y="152.5" fill="#E38712" width="19.2" height="19.5"/>
<rect x="61.1" y="152.5" fill="#E38712" width="26.6" height="19.5"/>
<rect x="98.7" y="129.5" fill="#E38712" width="15.3" height="19.5"/>
<rect x="117.5" y="129.5" fill="#E38712" width="63.2" height="19.5"/>
<rect x="102.9" y="106" fill="#E38712" width="22.3" height="19.5"/>
<rect x="128.4" y="106" fill="#E38712" width="52.3" height="19.5"/>
<rect x="38.2" y="220" fill="#E38712" width="15.5" height="19.5"/>
<rect x="57.7" y="220" fill="#E38712" width="30" height="19.5"/>
<rect x="91.2" y="220" fill="#E38712" width="8.5" height="19.5"/>
<rect x="38.4" y="254.5" fill="#E38712" width="26.8" height="19.5"/>
<rect x="68.7" y="254.5" fill="#E38712" width="26.8" height="19.5"/>
<rect x="38.4" y="291" fill="#E38712" width="19.2" height="19.5"/>
<rect x="61.1" y="291" fill="#E38712" width="26.6" height="19.5"/>
<rect x="98.7" y="254.5" fill="#E38712" width="15.3" height="19.5"/>
<rect x="117.5" y="254.5" fill="#E38712" width="63.2" height="19.5"/>
<rect x="102.9" y="220" fill="#E38712" width="22.3" height="19.5"/>
<rect x="128.4" y="220" fill="#E38712" width="52.3" height="19.5"/>
<rect x="197.7" y="222.8" fill="#E38712" width="15.5" height="19.5"/>
<rect x="217.2" y="222.8" fill="#E38712" width="30" height="19.5"/>
<rect x="250.7" y="222.8" fill="#E38712" width="8.5" height="19.5"/>
<rect x="197.9" y="256.2" fill="#E38712" width="26.8" height="19.5"/>
<rect x="228.2" y="256.2" fill="#E38712" width="26.8" height="19.5"/>
<rect x="197.9" y="288.8" fill="#E38712" width="19.2" height="19.5"/>
<rect x="220.6" y="288.8" fill="#E38712" width="26.6" height="19.5"/>
<rect x="258.2" y="256.2" fill="#E38712" width="15.3" height="19.5"/>
<rect x="277" y="256.2" fill="#E38712" width="63.2" height="19.5"/>
<rect x="262.4" y="222.8" fill="#E38712" width="22.3" height="19.5"/>
<rect x="287.9" y="222.8" fill="#E38712" width="52.3" height="19.5"/>
<rect x="197.7" y="94" fill="#E38712" width="15.5" height="26.7"/>
<rect x="217.2" y="94" fill="#E38712" width="30" height="26.7"/>
<rect x="250.7" y="94" fill="#E38712" width="8.5" height="26.7"/>
<rect x="197.9" y="126.2" fill="#E38712" width="26.8" height="26.7"/>
<rect x="228.2" y="126.2" fill="#E38712" width="26.8" height="26.7"/>
<rect x="197.9" y="157.8" fill="#E38712" width="19.2" height="26.7"/>
<rect x="220.6" y="157.8" fill="#E38712" width="26.6" height="26.7"/>
<rect x="258.2" y="126.2" fill="#E38712" width="15.3" height="26.7"/>
<rect x="277" y="126.2" fill="#E38712" width="63.2" height="26.7"/>
<rect x="262.4" y="94" fill="#E38712" width="22.3" height="26.7"/>
<rect x="287.9" y="94" fill="#E38712" width="52.3" height="26.7"/>
</svg>
